<svg xmlns="http://www.w3.org/2000/svg" viewBox="0 0 135 40">
  <path d="M130,40H5c-2.8,0-5-2.2-5-5V5c0-2.8,2.2-5,5-5h125c2.8,0,5,2.2,5,5v30C135,37.8,132.8,40,130,40z" fill="#000"/>
  <path d="M130,0.8c2.3,0,4.2,1.9,4.2,4.2v30c0,2.3-1.9,4.2-4.2,4.2H5c-2.3,0-4.2-1.9-4.2-4.2V5c0-2.3,1.9-4.2,4.2-4.2H130 M130,0H5C2.2,0,0,2.3,0,5v30c0,2.8,2.2,5,5,5h125c2.8,0,5-2.2,5-5V5C135,2.3,132.8,0,130,0L130,0z" fill="#A6A6A6"/>
  <path d="M30.1,19.8c0-3.2,2.6-4.8,2.8-4.9c-1.5-2.2-3.9-2.5-4.7-2.5c-2-0.2-3.9,1.2-4.9,1.2c-1,0-2.6-1.2-4.2-1.1c-2.1,0-4.1,1.3-5.2,3.2c-2.3,3.9-0.6,9.7,1.6,12.9c1.1,1.6,2.4,3.3,4,3.2c1.6-0.1,2.2-1,4.2-1c1.9,0,2.5,1,4.2,1c1.7,0,2.8-1.6,3.9-3.1c1.3-1.8,1.8-3.5,1.8-3.6C33.5,24.9,30.2,23.6,30.1,19.8z" fill="#fff"/>
  <path d="M26.9,10.3c0.9-1.1,1.5-2.6,1.3-4.1c-1.3,0.1-2.8,0.9-3.8,1.9c-0.8,0.9-1.5,2.5-1.3,3.9C24.6,12.2,26,11.4,26.9,10.3z" fill="#fff"/>
  <path d="M53.6,31.5h-2.3l-1.2-3.9h-4.3l-1.2,3.9h-2.2L46.7,19h2.9L53.6,31.5z M49.6,25.9L48.3,22c-0.1-0.4-0.4-1.5-0.8-3.1h0c-0.2,0.7-0.4,1.7-0.8,3.1l-1.3,3.9H49.6z" fill="#fff"/>
  <path d="M64.7,26.6c0,1.6-0.4,2.9-1.3,3.9c-0.8,0.8-1.8,1.3-2.9,1.3c-1.3,0-2.2-0.5-2.7-1.4h0v5.1h-2.1V25.1c0-1,0-2.1-0.1-3.2h1.9l0.1,1.5h0c0.7-1.1,1.8-1.7,3.2-1.7c1.1,0,2.1,0.4,2.8,1.3C64.3,23.9,64.7,25.1,64.7,26.6z M62.5,26.7c0-0.9-0.2-1.7-0.6-2.3c-0.5-0.6-1.1-0.9-1.9-0.9c-0.5,0-1,0.2-1.4,0.5C58.2,24.4,58,24.7,57.8,25c-0.1,0.3-0.1,0.6-0.1,0.7v1.6c0,0.7,0.2,1.3,0.6,1.8c0.4,0.5,1,0.7,1.7,0.7c0.8,0,1.4-0.3,1.9-0.9C62.3,28.5,62.5,27.7,62.5,26.7z" fill="#fff"/>
  <path d="M75.7,26.6c0,1.6-0.4,2.9-1.3,3.9c-0.8,0.8-1.8,1.3-2.9,1.3c-1.3,0-2.2-0.5-2.7-1.4h0v5.1h-2.1V25.1c0-1,0-2.1-0.1-3.2h1.9l0.1,1.5h0c0.7-1.1,1.8-1.7,3.2-1.7c1.1,0,2.1,0.4,2.8,1.3C75.3,23.9,75.7,25.1,75.7,26.6z M73.5,26.7c0-0.9-0.2-1.7-0.6-2.3c-0.5-0.6-1.1-0.9-1.9-0.9c-0.5,0-1,0.2-1.4,0.5c-0.4,0.3-0.7,0.7-0.8,1.1c-0.1,0.3-0.1,0.6-0.1,0.7v1.6c0,0.7,0.2,1.3,0.6,1.8c0.4,0.5,1,0.7,1.7,0.7c0.8,0,1.4-0.3,1.9-0.9C73.3,28.5,73.5,27.7,73.5,26.7z" fill="#fff"/>
  <path d="M88.2,27.8c0,1.1-0.4,2.1-1.2,2.8c-0.9,0.8-2.1,1.2-3.6,1.2c-1.4,0-2.6-0.3-3.4-0.8l0.5-1.8c0.9,0.5,2,0.8,3.1,0.8c0.8,0,1.4-0.2,1.9-0.5c0.4-0.4,0.7-0.8,0.7-1.5c0-0.5-0.2-1-0.5-1.4c-0.4-0.4-1-0.7-1.7-1c-2.2-0.8-3.3-2-3.3-3.5c0-1,0.4-1.9,1.2-2.6c0.8-0.7,1.8-1,3.1-1c1.2,0,2.2,0.2,3,0.6L87.4,20c-0.8-0.4-1.6-0.6-2.5-0.6c-0.8,0-1.3,0.2-1.7,0.5c-0.3,0.3-0.5,0.7-0.5,1.2c0,0.5,0.2,0.9,0.6,1.3c0.3,0.3,0.9,0.6,1.8,0.9c1.1,0.4,1.9,0.9,2.4,1.5C88,25.8,88.2,26.6,88.2,27.8z" fill="#fff"/>
  <path d="M95.1,23.5h-2.3v4.7c0,1.2,0.4,1.8,1.2,1.8c0.4,0,0.7,0,0.9-0.1l0.1,1.6c-0.4,0.2-1,0.2-1.7,0.2c-0.8,0-1.5-0.3-2-0.8c-0.5-0.5-0.7-1.4-0.7-2.6v-4.8h-1.4v-1.6h1.4v-1.8l2.1-0.6v2.4h2.3V23.5z" fill="#fff"/>
  <path d="M105.7,26.6c0,1.5-0.4,2.7-1.3,3.6c-0.9,1-2,1.5-3.4,1.5c-1.4,0-2.5-0.5-3.3-1.4c-0.8-0.9-1.3-2.1-1.3-3.5c0-1.5,0.4-2.7,1.3-3.7c0.9-0.9,2-1.4,3.4-1.4c1.4,0,2.5,0.5,3.3,1.4C105.3,24,105.7,25.2,105.7,26.6z M103.5,26.7c0-0.9-0.2-1.6-0.6-2.3c-0.4-0.8-1.1-1.1-1.9-1.1c-0.9,0-1.5,0.4-2,1.1c-0.4,0.6-0.6,1.4-0.6,2.3c0,0.9,0.2,1.6,0.6,2.3c0.5,0.8,1.1,1.1,1.9,1.1c0.8,0,1.5-0.4,1.9-1.2C103.3,28.3,103.5,27.6,103.5,26.7z" fill="#fff"/>
  <path d="M112.6,23.8c-0.2,0-0.4-0.1-0.7-0.1c-0.8,0-1.3,0.3-1.7,0.8c-0.4,0.5-0.5,1.1-0.5,1.9v5h-2.1l0-6.6c0-1.1,0-2.1-0.1-3h1.9l0.1,1.8h0.1c0.2-0.6,0.6-1.1,1.1-1.5c0.5-0.3,1-0.5,1.5-0.5c0.2,0,0.4,0,0.5,0V23.8z" fill="#fff"/>
  <path d="M122.2,26.3c0,0.4,0,0.7-0.1,1h-6.4c0,0.9,0.3,1.7,0.9,2.2c0.5,0.5,1.2,0.7,2.1,0.7c0.9,0,1.8-0.1,2.6-0.5l0.3,1.5c-0.9,0.4-2,0.6-3.2,0.6c-1.5,0-2.7-0.4-3.5-1.3c-0.8-0.9-1.3-2.1-1.3-3.5c0-1.4,0.4-2.7,1.2-3.6c0.8-1,1.9-1.5,3.4-1.5c1.4,0,2.4,0.5,3.1,1.5C121.9,24,122.2,25.1,122.2,26.3z M120.1,25.7c0-0.6-0.1-1.2-0.4-1.6c-0.4-0.6-0.9-0.9-1.7-0.9c-0.7,0-1.3,0.3-1.7,0.9c-0.4,0.5-0.6,1-0.6,1.7H120.1z" fill="#fff"/>
  <g>
    <path d="M49,10.1c0,1.2-0.4,2.1-1.1,2.7c-0.7,0.5-1.6,0.8-2.8,0.8c-0.6,0-1.1,0-1.5-0.1V6.9c0.6-0.1,1.2-0.1,1.8-0.1c1.1,0,2,0.2,2.6,0.7C48.7,8.1,49,8.9,49,10.1z M47.9,10.1c0-0.8-0.2-1.3-0.6-1.8c-0.4-0.4-1-0.6-1.8-0.6c-0.3,0-0.6,0-0.8,0.1v4.9c0.1,0,0.4,0,0.7,0c0.8,0,1.4-0.2,1.9-0.7C47.6,11.5,47.9,10.9,47.9,10.1z" fill="#fff"/>
    <path d="M54.9,11H52v2.3h3.2v0.7h-4.1V7h4v0.8H52v2.5h2.9V11z" fill="#fff"/>
    <path d="M62.8,14h-1l-0.9-2.7h-3L57,14h-0.9l2.9-7h0.9L62.8,14z M60.7,10.5l-0.8-2.3c-0.1-0.2-0.1-0.5-0.2-0.8c-0.1,0.3-0.1,0.6-0.2,0.8l-0.8,2.3H60.7z" fill="#fff"/>
    <path d="M68.2,11.3c0,0.9-0.2,1.6-0.7,2.1c-0.5,0.5-1.2,0.8-2.1,0.8c-0.9,0-1.6-0.3-2-0.8c-0.5-0.5-0.7-1.2-0.7-2.1V7h0.9v4.3c0,0.6,0.1,1.1,0.4,1.4c0.3,0.3,0.7,0.5,1.3,0.5c0.6,0,1-0.2,1.3-0.5c0.3-0.3,0.4-0.8,0.4-1.4V7h0.9V11.3z" fill="#fff"/>
    <path d="M71.1,14h-0.9V7.8h-2.6V7h6v0.8h-2.6V14z" fill="#fff"/>
    <path d="M80,14V7h0.9v7H80z" fill="#fff"/>
    <path d="M87.8,14H87V7.8h-2.6V7h6v0.8h-2.6V14z" fill="#fff"/>
    <path d="M97.2,14h-4.1V7h4v0.8h-3.2v2.3h2.9v0.8h-2.9v2.4h3.2V14z" fill="#fff"/>
  </g>
</svg> 