<svg xmlns="http://www.w3.org/2000/svg" viewBox="0 0 200 80">
  <path d="M53.82,21.47c-1.27-2.32-4.67-1.05-7.45.63c-4.93,2.98-10.03,11.92-12.77,20.18c-1.9,5.74-2.32,10.03-1.69,11.92c.63,1.9,2.11,2.11,4.67.42c3.38-2.11,10.03-12.14,12.98-20.39c1.69-4.67,5.3-9.82,5.3-9.82C55.93,22.94,54.87,23.16,53.82,21.47z" style="fill:#ff3f6c;" />
  <path d="M101.34,25.73c-1.69-3.6-4.55-5.08-9.82-4.25c-4.67.63-9.61,3.17-14.49,7.84c-.63.63-1.27,1.27-1.9,1.9c-.21-.21-.42-.42-.63-.63c-2.74-2.95-5.29-4.43-8.24-4.43c-5.3,0-11.5,5.08-16.59,12.56c-4.04,5.93-5.93,11.92-5.72,16.59c.21,4.46,2.53,7.41,7.2,7.41c4.88,0,10.24-3.6,14.7-9.31c.76-1.01,1.48-2.03,2.11-3.17c.63.63,1.27,1.05,1.9,1.48c2.95,1.69,5.72,1.69,8.88-.63c3.39-2.53,7.2-7.41,10.24-12.98c0,0-10.87,18.48-2.53,18.48c3.81,0,9.82-5.72,15.33-14.7c.7-1.16,1.15-2.03,1.15-2.03s.73,6.75,4.97,8.11c4.24,1.36,10.17-2.43,15.95-12.92c0,0-1.69,2.32-2.74,3.38c-4.46,4.67-8.24,6.14-8.66,5.08c-.42-1.05,2.74-6.14,5.93-11.5c2.11-3.6,2.53-5.51,1.69-6.77c-1.27-1.9-4.46-.42-7.2,3.17c-3.38,4.46-7.62,12.77-7.62,12.77c0,.21-.21.42-.21.63c-4.67,7.62-12.92,10.66-12.92,5.93c0-4.25,5.93-11.08,11.71-11.08c1.9,0,3.81,1.05,3.81,1.05C100.71,29.76,102.18,27.21,101.34,25.73z M63.44,43.16c-1.69,3.81-5.93,8.88-8.88,8.88c-2.95,0-2.32-4.25-.42-8.88c2.32-5.51,6.35-10.66,9.31-10.66c2.95,0,1.9,4.46,0,8.24C63.44,41.26,63.44,42.1,63.44,43.16z M82.65,43.16c-1.69,3.81-5.93,8.88-8.88,8.88c-2.95,0-2.32-4.25-.42-8.88c2.32-5.51,6.35-10.66,9.31-10.66c2.95,0,1.9,4.46,0,8.24C82.65,41.26,82.65,42.1,82.65,43.16z" style="fill:#ff3f6c;" />
  <path d="M148.98,25.73c-1.69-3.6-4.55-5.08-9.82-4.25c-4.67.63-9.61,3.17-14.49,7.84c-.63.63-1.27,1.27-1.9,1.9c-.21-.21-.42-.42-.63-.63c-2.74-2.95-5.3-4.43-8.24-4.43c-5.3,0-11.5,5.08-16.59,12.56c-4.04,5.93-5.93,11.92-5.72,16.59c.21,4.46,2.53,7.41,7.2,7.41c4.88,0,10.24-3.6,14.7-9.31c.76-1.01,1.48-2.03,2.11-3.17c.63.63,1.27,1.05,1.9,1.48c2.95,1.69,5.72,1.69,8.88-.63c3.38-2.53,7.2-7.41,10.24-12.98c0,0-10.87,18.48-2.53,18.48c3.81,0,9.82-5.72,15.33-14.7c.7-1.16,1.15-2.03,1.15-2.03s.73,6.75,4.97,8.11c4.24,1.36,10.17-2.43,15.95-12.92c0,0-1.69,2.32-2.74,3.38c-4.46,4.67-8.24,6.14-8.66,5.08c-.42-1.05,2.74-6.14,5.93-11.5c2.11-3.6,2.53-5.51,1.69-6.77c-1.27-1.9-4.46-.42-7.2,3.17c-3.38,4.46-7.62,12.77-7.62,12.77c0,.21-.21.42-.21.63c-4.67,7.62-12.92,10.66-12.92,5.93c0-4.25,5.93-11.08,11.71-11.08c1.9,0,3.81,1.05,3.81,1.05C148.35,29.76,149.82,27.21,148.98,25.73z M111.07,43.16c-1.69,3.81-5.93,8.88-8.88,8.88c-2.95,0-2.32-4.25-.42-8.88c2.32-5.51,6.35-10.66,9.31-10.66c2.95,0,1.9,4.46,0,8.24C111.07,41.26,111.07,42.1,111.07,43.16z M130.29,43.16c-1.69,3.81-5.93,8.88-8.88,8.88c-2.95,0-2.32-4.25-.42-8.88c2.32-5.51,6.35-10.66,9.31-10.66c2.95,0,1.9,4.46,0,8.24C130.29,41.26,130.29,42.1,130.29,43.16z" style="fill:#ff3f6c;" />
</svg> 